<?xml version="1.0" encoding="utf-8"?>
<!-- Generator: Adobe Illustrator 19.2.1, SVG Export Plug-In . SVG Version: 6.00 Build 0)  -->
<svg version="1.1" id="layer" xmlns="http://www.w3.org/2000/svg" xmlns:xlink="http://www.w3.org/1999/xlink" x="0px" y="0px"
	 viewBox="0 0 652 652" style="enable-background:new 0 0 652 652;" xml:space="preserve">
<style type="text/css">
	.st0{fill:#FFFFFF;}
	.st1{opacity:0.7;fill:#FFFFFF;enable-background:new    ;}
	.st2{opacity:0.6;fill:#FFFFFF;enable-background:new    ;}
	.st3{opacity:0.85;fill:#FFFFFF;enable-background:new    ;}
	.st4{opacity:0.95;fill:#FFFFFF;enable-background:new    ;}
	.st5{opacity:0.98;fill:#FFFFFF;enable-background:new    ;}
</style>
<rect x="20.6" y="206.6" width="600" height="230.8"/>
<g>
	<path class="st0" d="M306.9,320.5v23.7c-4.8,2.8-12.5,4.4-18.5,4.4c-16.5,0-26.1-11.6-26.1-25.2c0-14.2,10.5-25.2,25.4-25.2
		c9,0,14.4,2.4,18.2,6.2l-4.7,4.9c-4-3.8-8.6-5.1-13.5-5.1c-11.2,0-18.4,8.6-18.4,19.1c0,10.9,8.2,19.1,18.9,19.1
		c4.6,0,9-0.9,12-2.5v-13.4h-10.8v-6.1L306.9,320.5L306.9,320.5z"/>
	<path class="st0" d="M288.4,349.1c-15.7,0-26.6-10.6-26.6-25.8c0-14.7,11.2-25.8,26-25.8c8.4,0,14.3,2,18.6,6.4l0.3,0.4l-5.4,5.7
		l-0.4-0.4c-3.5-3.3-7.8-5-13.1-5c-10.4,0-17.8,7.8-17.8,18.6c0,10.6,7.9,18.6,18.4,18.6c4.5,0,8.6-0.8,11.5-2.3v-12.5h-10.8V320
		h18.5v24.5l-0.2,0.1C302,347.7,293.9,349.1,288.4,349.1C288.4,349.1,288.4,349.1,288.4,349.1z M287.7,298.7
		c-14.5,0-24.9,10.4-24.9,24.7c0,14.5,10.5,24.7,25.6,24.7c5.2,0,13-1.3,17.9-4.2V321H290v5h10.8v14.2l-0.3,0.1
		c-3,1.7-7.4,2.6-12.3,2.6c-11.1,0-19.5-8.4-19.5-19.6c0-11.4,8-19.6,18.9-19.6c5.4,0,9.8,1.6,13.5,4.9l4-4.2
		C301.2,300.5,295.6,298.7,287.7,298.7L287.7,298.7L287.7,298.7z M329.3,314.4c9.4,0.1,17,7.7,16.9,17c-0.1,9.3-7.8,16.8-17.2,16.7
		c-9.4,0-17.1-7.6-17.1-16.9c0-4.5,1.9-8.9,5.1-12C320.3,316.1,324.7,314.4,329.3,314.4z M329.3,342.5c6.6,0,10.7-4.7,10.7-11.2
		c0-6.5-4.1-11.2-10.7-11.2c-6.6,0-10.7,4.7-10.7,11.2C318.6,337.8,322.7,342.5,329.3,342.5L329.3,342.5z"/>
	<path class="st0" d="M329.3,348.7c-9.7-0.1-17.6-7.9-17.5-17.5c0.1-9.6,8-17.3,17.7-17.3c9.7,0,17.6,7.8,17.6,17.4
		c0,4.7-1.9,9.1-5.2,12.4C338.6,347,334,348.8,329.3,348.7z M329.3,314.9c-9.2,0.1-16.5,7.5-16.4,16.5c0.1,9,7.5,16.3,16.7,16.2
		c9.2,0,16.6-7.4,16.6-16.4c0-4.4-1.8-8.6-4.9-11.7C338,316.5,333.7,314.9,329.3,314.9z M329.3,343c-6.7,0-11.3-4.7-11.3-11.7
		s4.5-11.7,11.3-11.7c6.7,0,11.3,4.7,11.3,11.7C340.6,338.3,336.1,343,329.3,343z M329.3,320.6c-6.1,0-10.2,4.3-10.2,10.7
		s4.1,10.7,10.2,10.7c6.1,0,10.2-4.3,10.2-10.7S335.4,320.6,329.3,320.6z M367.6,314.4c9.4,0.1,17,7.7,16.9,17
		c-0.1,9.3-7.8,16.8-17.2,16.7c-9.4,0-17.1-7.6-17.1-16.9c0-4.5,1.8-8.8,5.1-12C358.6,316.1,363,314.4,367.6,314.4z M367.6,342.5
		c6.6,0,10.7-4.7,10.7-11.2c0-6.5-4.1-11.2-10.7-11.2s-10.7,4.7-10.7,11.2C356.8,337.8,360.9,342.5,367.6,342.5L367.6,342.5z"/>
	<path class="st0" d="M367.6,348.7c-9.7-0.1-17.6-7.9-17.5-17.5c0.1-9.6,8-17.3,17.7-17.3c9.7,0,17.6,7.8,17.6,17.4
		c0,4.7-1.9,9.1-5.2,12.4C376.8,347,372.3,348.8,367.6,348.7z M367.6,314.9c-9.2,0.1-16.5,7.5-16.4,16.5c0.1,9,7.5,16.3,16.7,16.2
		c9.2,0,16.6-7.4,16.6-16.4c0-4.4-1.8-8.6-4.9-11.7C376.3,316.5,372,314.9,367.6,314.9z M367.6,343c-6.8,0-11.3-4.7-11.3-11.7
		s4.5-11.7,11.3-11.7c6.8,0,11.3,4.7,11.3,11.7C378.8,338.3,374.3,343,367.6,343z M367.6,320.6c-6.1,0-10.2,4.3-10.2,10.7
		s4.1,10.7,10.2,10.7c6.1,0,10.2-4.3,10.2-10.7S373.7,320.6,367.6,320.6z M422.9,347.4h-6.2v-4.6h-0.1c-2.4,3.4-7,5.4-11.4,5.4
		c-10.1,0-16.6-7.4-16.6-16.9c0-9.6,6.5-16.9,16.6-16.9c4.7,0,9.2,2.1,11.4,5.4h0.1v-21.3h6.2V347.4z M416.7,331.3
		c0-6.5-4.1-11.2-10.7-11.2c-6.6,0-10.7,4.7-10.7,11.2c0,6.5,4.1,11.2,10.7,11.2C412.6,342.5,416.7,337.8,416.7,331.3L416.7,331.3z"
		/>
	<path class="st0" d="M405.2,348.7c-10.1,0-17.1-7.2-17.1-17.4c0-10.2,7.1-17.4,17.1-17.4c4.1-0.1,8.1,1.6,11,4.6v-20.4h7.3v49.8
		h-7.3v-3.8C413.3,347.1,409.3,348.8,405.2,348.7L405.2,348.7z M405.2,314.9c-9.4,0-16.1,6.7-16.1,16.4c0,9.7,6.6,16.4,16.1,16.4
		c4.4,0,8.7-2,10.9-5.2l0.2-0.2h0.8l0.1,0.5v4.1h5.1v-47.8h-5.1v21.3h-0.9l-0.3-0.3C414,317,409.7,314.9,405.2,314.9L405.2,314.9z
		 M405.9,343c-6.7,0-11.3-4.7-11.3-11.7s4.5-11.7,11.3-11.7c6.7,0,11.3,4.7,11.3,11.7C417.2,338.3,412.7,343,405.9,343z
		 M405.9,320.6c-6.1,0-10.2,4.3-10.2,10.7s4.1,10.7,10.2,10.7c6.1,0,10.2-4.3,10.2-10.7S412,320.6,405.9,320.6z M431.1,299H446
		c20.6,0,25.6,15.5,25.6,24.3c0,12.3-9.3,24-26.7,24h-13.8V299L431.1,299z M437.7,341.3h6.2c11.2,0,20.7-6,20.7-17.9
		c0-6.1-3.2-18.3-19.1-18.3h-7.8C437.7,305.1,437.7,341.3,437.7,341.3z"/>
	<path class="st0" d="M444.9,347.9h-14.3v-49.4H446c20.7,0,26.1,15.6,26.1,24.9C472.1,335.6,462.8,347.9,444.9,347.9z M431.6,346.9
		h13.2c18,0,26.2-12.2,26.2-23.5c0-2.4-0.7-23.8-25.1-23.8h-14.3V346.9z M443.9,341.8h-6.7v-37.2h8.3c19.1,0,19.6,16.9,19.6,18.8
		C465.1,336.1,454.5,341.8,443.9,341.8L443.9,341.8z M438.2,340.7h5.7c9.3,0,20.1-4.5,20.1-17.4c0-1.8-0.5-17.7-18.5-17.7h-7.2
		V340.7L438.2,340.7z M476.5,319.2c3.6-3.1,8.2-4.8,12.9-4.8c9.6,0,13.6,5.2,13.6,10.7v16.4c0,2,0.1,3.9,0.3,5.9h-5.5
		c-0.1-1.6-0.2-3.2-0.2-4.9h-0.1c-2.8,4.1-6.5,5.7-11.4,5.7c-6.1,0-11.3-3.3-11.3-9.6c0-8.3,8.1-11.1,18-11.1h4.5v-1.4
		c0-3.3-2.5-6.8-7.8-6.8c-4.8,0-7,2-9.3,3.7L476.5,319.2L476.5,319.2z M494,331.9c-5.9,0-13,1-13,6.2c0,3.6,2.8,5.2,7,5.2
		c6.9,0,9.3-5,9.3-9.3v-2C497.3,331.9,494,331.9,494,331.9z"/>
	<path class="st0" d="M486.1,348.7c-7,0-11.8-4.2-11.8-10.2c0-7.5,6.6-11.6,18.5-11.6h4v-0.8c0-3-2.3-6.2-7.3-6.2
		c-4.2,0-6.4,1.6-8.5,3.2l-0.9,0.6l-4.4-4.5l0.4-0.4c3.7-3.2,8.4-4.9,13.3-4.9c10.5,0,14.2,5.8,14.2,11.2v16.4
		c0,1.9,0.1,3.9,0.3,5.8l0.1,0.6h-6.6v-0.5c-0.1-1.2-0.2-2.3-0.2-3.5C494.5,347.2,490.9,348.7,486.1,348.7
		C486.1,348.7,486.1,348.7,486.1,348.7z M492.7,328c-8,0-17.4,1.8-17.4,10.6c0,6.3,5.4,9.1,10.8,9.1c5.1,0,8.5-1.7,11-5.5l0.2-0.2
		h0.8l0.1,0.5c0,1.5,0,2.9,0.2,4.4h4.4c-0.2-1.8-0.2-3.5-0.2-5.3v-16.4c0-4.9-3.4-10.2-13.1-10.2c-4.4,0-8.7,1.5-12.2,4.3l3,3.1
		l0.1-0.1c2.1-1.6,4.6-3.4,9.2-3.4c5.7,0,8.3,3.8,8.3,7.3v1.9H492.7L492.7,328z M488,343.8c-4.9,0-7.6-2-7.6-5.7
		c0-3.1,2.4-6.7,13.6-6.7h3.8v2.6C497.9,338.5,495.3,343.9,488,343.8C488,343.9,488,343.8,488,343.8z M494,332.5
		c-5.7,0-12.5,1-12.5,5.7c0,3.1,2.2,4.7,6.5,4.7c6.5,0,8.8-4.6,8.8-8.8v-1.5H494L494,332.5z M528.7,320.5h-8.9v14.6
		c0,3.6,0,7.4,4.7,7.4c1.5,0.1,3-0.3,4.4-0.9v5.6c-1.4,0.8-4.3,1.1-5.6,1.1c-9.6,0-9.7-5.8-9.7-10.9v-16.7h-7.2v-5.3h7.2v-9.1h6.2v9
		h8.9V320.5L528.7,320.5z"/>
	<path class="st0" d="M523.3,348.7c-10.2,0-10.2-6.6-10.2-11.4V321h-7.2v-6.3h7.2v-9h7.3v9h8.9v6.3h-8.9v14c0,4.3,0.3,6.9,4.2,6.9
		c1.4,0.1,2.9-0.2,4.1-0.8l0.9-0.5v6.8l-0.3,0.2C527.5,348.5,524.4,348.7,523.3,348.7C523.4,348.7,523.3,348.7,523.3,348.7z
		 M507,320h7.2v17.3c0,4.9,0,10.4,9.2,10.4c1.7,0,3.4-0.3,5-0.9v-4.4c-1.2,0.4-2.6,0.7-3.9,0.6c-5.2,0-5.2-4.4-5.2-7.9V320h8.9v-4.2
		h-8.9v-9h-5.1v9H507L507,320L507,320L507,320z M534.8,319.2c3.6-3.1,8.2-4.8,12.9-4.8c9.6,0,13.6,5.2,13.6,10.7v16.4
		c0,2,0.1,3.9,0.3,5.9h-5.5c-0.1-1.6-0.2-3.2-0.2-4.9h-0.2c-2.7,4.1-6.5,5.7-11.4,5.7c-6.1,0-11.3-3.3-11.3-9.6
		c0-8.3,8.1-11.1,18-11.1h4.5v-1.4c0-3.3-2.5-6.8-7.8-6.8c-4.8,0-7,2-9.3,3.7L534.8,319.2L534.8,319.2z M552.3,331.9
		c-5.9,0-13,1-13,6.2c0,3.6,2.8,5.2,7,5.2c6.9,0,9.3-5,9.3-9.3v-2C555.6,331.9,552.3,331.9,552.3,331.9z"/>
	<path class="st0" d="M544.3,348.7c-7,0-11.8-4.2-11.8-10.2c0-7.5,6.6-11.6,18.5-11.6h4v-0.8c0-3-2.3-6.2-7.2-6.2
		c-4.2,0-6.4,1.6-8.5,3.2l-0.9,0.6l-4.4-4.5l0.4-0.4c3.7-3.2,8.4-5,13.3-4.9c10.5,0,14.2,5.8,14.2,11.2v16.4c0,1.9,0.1,3.9,0.3,5.8
		l0.1,0.6h-6.6v-0.5c-0.1-1.2-0.2-2.3-0.2-3.5C552.8,347.2,549.2,348.7,544.3,348.7L544.3,348.7L544.3,348.7z M551,328
		c-8,0-17.4,1.8-17.4,10.6c0,6.3,5.4,9.1,10.8,9.1c5.1,0,8.5-1.7,11-5.5l0.2-0.2h0.9l0.1,0.5c0,1.5,0.1,2.9,0.2,4.4h4.4
		c-0.2-1.8-0.2-3.5-0.2-5.3v-16.4c0-4.9-3.4-10.2-13.1-10.2c-4.4,0-8.8,1.5-12.2,4.3l3,3.1l0.1-0.1c2.1-1.6,4.5-3.4,9.2-3.4
		c5.7,0,8.3,3.8,8.3,7.3v1.9H551L551,328z M546.3,343.8c-4.9,0-7.6-2-7.6-5.7c0-3.1,2.3-6.7,13.6-6.7h3.8v2.6
		C556.1,338.5,553.6,343.9,546.3,343.8C546.3,343.9,546.3,343.8,546.3,343.8z M552.3,332.4c-5.7,0-12.5,1-12.5,5.7
		c0,3.1,2.2,4.7,6.5,4.7c6.5,0,8.8-4.6,8.8-8.8v-1.5C555.1,332.4,552.3,332.4,552.3,332.4z"/>
	<path class="st1" d="M170.4,322h-21.7c0,7.1,1.2,14.2,3.4,21C162.6,341.3,170.3,332.5,170.4,322 M218.4,325.6
		c-1.3,23.2-14.4,44.1-34.8,55.8c10.6,6,22.6,9.2,34.8,9.3V325.6L218.4,325.6z"/>
	<path class="st2" d="M126.9,322H78.8c0.1,18.3,7.4,35.7,20.5,48.5l34-33.5C129.3,333.1,127,327.7,126.9,322"/>
	<path class="st3" d="M148.6,343.3c-5.7,0-11.2-2.3-15.3-6.2l-34,33.5c13.2,12.9,30.9,20.1,49.4,20.1L148.6,343.3"/>
	<path class="st4" d="M149,300.1v-47.4c-18.6,0-36.6,7.3-49.8,20.4l34,33.5C137.4,302.5,143.1,300.1,149,300.1"/>
	<path class="st1" d="M126.9,321.7c0-5.6,2.2-11,6.2-15l-34-33.5c-13,12.8-20.3,30.3-20.3,48.5v0.3h48.1L126.9,321.7"/>
	<path class="st2" d="M164.1,306.5l34-33.5c-13.1-12.9-30.7-20.1-49.1-20.2v47.3C154.6,300.3,160,302.6,164.1,306.5"/>
	<path class="st1" d="M152.1,343c-1.1,0.2-2.3,0.3-3.4,0.3v47.4c12.3,0,24.3-3.2,35-9.3C168.8,373,157.5,359.3,152.1,343"/>
	<path class="st5" d="M218.4,325.6V322h-48c-0.1,10.4-7.9,19.3-18.3,21c5.3,16.3,16.6,30,31.5,38.4
		C204.1,369.7,217.1,348.7,218.4,325.6"/>
</g>
</svg>
